<svg width="215" height="216" viewBox="0 0 215 216" fill="none" xmlns="http://www.w3.org/2000/svg">
<g id="Frame 16">
<g id="Vector 3">
<path d="M27.3872 125.635L82.6397 198.958C84.1582 200.973 87.0227 201.376 89.0378 199.857L173.268 136.385C175.283 134.866 175.686 132.002 174.168 129.987L118.399 55.979C116.14 52.9823 111.432 53.835 110.369 57.4335L92.294 118.586C91.6901 120.629 89.7539 121.983 87.6274 121.85L31.3213 118.326C27.4264 118.082 25.0387 122.519 27.3872 125.635Z" fill="#0E0E11"/>
<path d="M27.3872 125.635L82.6397 198.958C84.1582 200.973 87.0227 201.376 89.0378 199.857L173.268 136.385C175.283 134.866 175.686 132.002 174.168 129.987L118.399 55.979C116.14 52.9823 111.432 53.835 110.369 57.4335L92.294 118.586C91.6901 120.629 89.7539 121.983 87.6274 121.85L31.3213 118.326C27.4264 118.082 25.0387 122.519 27.3872 125.635Z" fill="url(#paint0_linear_39_9983)" fill-opacity="0.1"/>
</g>
<g id="Vector 2">
<path d="M31.8594 98.9505L87.1119 172.273C88.6304 174.288 91.4949 174.691 93.51 173.172L177.741 109.7C179.756 108.182 180.158 105.317 178.64 103.302L122.871 29.2942C120.613 26.2974 115.905 27.1501 114.841 30.7486L96.7662 91.9008C96.1623 93.9441 94.2261 95.2986 92.0996 95.1655L35.7935 91.6414C31.8986 91.3976 29.5109 95.8339 31.8594 98.9505Z" fill="#0E0E11"/>
<path d="M31.8594 98.9505L87.1119 172.273C88.6304 174.288 91.4949 174.691 93.51 173.172L177.741 109.7C179.756 108.182 180.158 105.317 178.64 103.302L122.871 29.2942C120.613 26.2974 115.905 27.1501 114.841 30.7486L96.7662 91.9008C96.1623 93.9441 94.2261 95.2986 92.0996 95.1655L35.7935 91.6414C31.8986 91.3976 29.5109 95.8339 31.8594 98.9505Z" fill="url(#paint1_linear_39_9983)" fill-opacity="0.4"/>
</g>
</g>
<defs>
<linearGradient id="paint0_linear_39_9983" x1="67.176" y1="83.2205" x2="131.153" y2="168.121" gradientUnits="userSpaceOnUse">
<stop stop-color="#B55DDE"/>
<stop offset="1" stop-color="#64419D"/>
</linearGradient>
<linearGradient id="paint1_linear_39_9983" x1="71.6481" y1="56.5356" x2="135.625" y2="141.436" gradientUnits="userSpaceOnUse">
<stop stop-color="#B55DDE"/>
<stop offset="1" stop-color="#64419D"/>
</linearGradient>
</defs>
</svg>
