<svg width="75" height="79" viewBox="0 0 75 79" fill="none" xmlns="http://www.w3.org/2000/svg">
<g id="Frame 16">
<g id="Vector 3">
<path d="M0.213379 22.471L0.213378 68.3759C0.213378 69.6375 1.23609 70.6602 2.49767 70.6602L55.2317 70.6602C56.4932 70.6602 57.516 69.6375 57.516 68.3759L57.516 22.042C57.516 20.1658 55.3794 19.0897 53.8718 20.2066L28.2531 39.1869C27.3971 39.8211 26.2164 39.7793 25.4073 39.0863L3.98367 20.7361C2.50175 19.4668 0.213379 20.5198 0.213379 22.471Z" fill="#0E0E11"/>
<path d="M0.213379 22.471L0.213378 68.3759C0.213378 69.6375 1.23609 70.6602 2.49767 70.6602L55.2317 70.6602C56.4932 70.6602 57.516 69.6375 57.516 68.3759L57.516 22.042C57.516 20.1658 55.3794 19.0897 53.8718 20.2066L28.2531 39.1869C27.3971 39.8211 26.2164 39.7793 25.4073 39.0863L3.98367 20.7361C2.50175 19.4668 0.213379 20.5198 0.213379 22.471Z" fill="url(#paint0_linear_143_320)" fill-opacity="0.1"/>
</g>
<g id="Vector 2">
<path d="M10.0288 13.1609L10.0288 59.0658C10.0288 60.3274 11.0515 61.3501 12.3131 61.3501L65.0471 61.3501C66.3087 61.3501 67.3314 60.3274 67.3314 59.0658L67.3314 12.7319C67.3314 10.8558 65.1948 9.77961 63.6873 10.8965L38.0685 29.8768C37.2125 30.511 36.0318 30.4693 35.2227 29.7762L13.7991 11.4261C12.3172 10.1567 10.0288 11.2097 10.0288 13.1609Z" fill="#0E0E11"/>
<path d="M10.0288 13.1609L10.0288 59.0658C10.0288 60.3274 11.0515 61.3501 12.3131 61.3501L65.0471 61.3501C66.3087 61.3501 67.3314 60.3274 67.3314 59.0658L67.3314 12.7319C67.3314 10.8558 65.1948 9.77961 63.6873 10.8965L38.0685 29.8768C37.2125 30.511 36.0318 30.4693 35.2227 29.7762L13.7991 11.4261C12.3172 10.1567 10.0288 11.2097 10.0288 13.1609Z" fill="url(#paint1_linear_143_320)" fill-opacity="0.4"/>
</g>
</g>
<defs>
<linearGradient id="paint0_linear_143_320" x1="28.8647" y1="17.5067" x2="28.8647" y2="70.6602" gradientUnits="userSpaceOnUse">
<stop stop-color="#B55DDE"/>
<stop offset="1" stop-color="#64419D"/>
</linearGradient>
<linearGradient id="paint1_linear_143_320" x1="38.6801" y1="8.19666" x2="38.6801" y2="61.3501" gradientUnits="userSpaceOnUse">
<stop stop-color="#B55DDE"/>
<stop offset="1" stop-color="#64419D"/>
</linearGradient>
</defs>
</svg>
